# xmcd
#
# Track frame offsets: 
#        150
#        10904
#        29918
#        43995
#        53649
#        66936
#        78478
#        89886
#        101011
#        114198
#        133331
#        151015
#
# Disc length: 2179 seconds
#
# Revision: 0
# Processed by: cddbd v1.5.2PL0 Copyright (c) Steve Scherf et al.
# Submitted via: ExactAudioCopyFreeDBPlugin 1.0
#
DISCID=a508810c
DTITLE=Various Artist - Merry Country Christmas
DYEAR=2016
DGENRE=Country
TTITLE0=Randy Travis - Winter Wonderland
TTITLE1=Ashley Monroe - Tennessee Christmas
TTITLE2=Jewel - Silent Night
TTITLE3=Rodney Atkins - Up On The Rooftop
TTITLE4=Big and Rich - Blue Christmas
TTITLE5=Dwight Yoakam - Here Comes Santa Claus
TTITLE6=Jo Dee Messina - Sleigh Ride
TTITLE7=Travis Tritt - Santa Looked A Lot Like Daddy
TTITLE8=Hunter Hayes - Go, Tell It On The Mountain
TTITLE9=Wynonna - O Holy Night
TTITLE10=Kenny Rogers - Once Again It's Christmas
TTITLE11=Jana Kramer - Have Yourself A Merry Little Christmas
EXTD=
EXTT0=
EXTT1=
EXTT2=
EXTT3=
EXTT4=
EXTT5=
EXTT6=
EXTT7=
EXTT8=
EXTT9=
EXTT10=
EXTT11=
PLAYORDER=
